<mxfile host="app.diagrams.net" modified="2024-03-21T14:49:30.238Z" agent="Mozilla/5.0 (Windows NT 10.0; Win64; x64) AppleWebKit/537.36 (KHTML, like Gecko) Chrome/122.0.0.0 Safari/537.36" etag="gZCv2zVyJ-e5Alt8U5PG" version="24.0.1" type="github">
  <diagram name="PÃ¡gina-1" id="ALZvLKSLoyrf-DduqU5T">
    <mxGraphModel dx="2021" dy="600" grid="1" gridSize="10" guides="1" tooltips="1" connect="1" arrows="1" fold="1" page="1" pageScale="1" pageWidth="827" pageHeight="1169" math="0" shadow="0">
      <root>
        <mxCell id="0" />
        <mxCell id="1" parent="0" />
        <mxCell id="C01zyHq7IntDaLxIXgB6-2" value="PERIODISTA" style="html=1;dashed=0;whiteSpace=wrap;" vertex="1" parent="1">
          <mxGeometry x="-20" y="190" width="90" height="30" as="geometry" />
        </mxCell>
        <mxCell id="C01zyHq7IntDaLxIXgB6-5" value="ARCHIVOS" style="html=1;dashed=0;whiteSpace=wrap;" vertex="1" parent="1">
          <mxGeometry x="414" y="190" width="90" height="30" as="geometry" />
        </mxCell>
        <mxCell id="C01zyHq7IntDaLxIXgB6-6" value="id_periodista" style="rounded=1;whiteSpace=wrap;html=1;strokeColor=none;" vertex="1" parent="1">
          <mxGeometry x="-100" y="145" width="90" height="20" as="geometry" />
        </mxCell>
        <mxCell id="C01zyHq7IntDaLxIXgB6-7" value="" style="endArrow=oval;html=1;rounded=0;strokeWidth=1;startArrow=none;startFill=0;endFill=1;targetPerimeterSpacing=0;endSize=9;" edge="1" parent="1" source="C01zyHq7IntDaLxIXgB6-2" target="C01zyHq7IntDaLxIXgB6-6">
          <mxGeometry width="50" height="50" relative="1" as="geometry">
            <mxPoint x="120" y="375" as="sourcePoint" />
            <mxPoint x="170" y="325" as="targetPoint" />
          </mxGeometry>
        </mxCell>
        <mxCell id="C01zyHq7IntDaLxIXgB6-8" value="nombre" style="rounded=1;whiteSpace=wrap;html=1;strokeColor=none;" vertex="1" parent="1">
          <mxGeometry x="-30" y="125" width="90" height="20" as="geometry" />
        </mxCell>
        <mxCell id="C01zyHq7IntDaLxIXgB6-9" value="" style="endArrow=oval;html=1;rounded=0;strokeWidth=1;startArrow=none;startFill=0;endFill=0;targetPerimeterSpacing=0;endSize=9;" edge="1" parent="1" source="C01zyHq7IntDaLxIXgB6-2" target="C01zyHq7IntDaLxIXgB6-8">
          <mxGeometry width="50" height="50" relative="1" as="geometry">
            <mxPoint x="166.52999999999997" y="275" as="sourcePoint" />
            <mxPoint x="99.53" y="205" as="targetPoint" />
          </mxGeometry>
        </mxCell>
        <mxCell id="C01zyHq7IntDaLxIXgB6-10" value="nombre" style="rounded=1;whiteSpace=wrap;html=1;strokeColor=none;fillColor=none;" vertex="1" parent="1">
          <mxGeometry x="440" y="100" width="60" height="20" as="geometry" />
        </mxCell>
        <mxCell id="C01zyHq7IntDaLxIXgB6-11" value="" style="endArrow=oval;html=1;rounded=0;strokeWidth=1;startArrow=none;startFill=0;endFill=0;targetPerimeterSpacing=0;endSize=9;" edge="1" parent="1" source="C01zyHq7IntDaLxIXgB6-5" target="C01zyHq7IntDaLxIXgB6-10">
          <mxGeometry width="50" height="50" relative="1" as="geometry">
            <mxPoint x="355.26" y="260" as="sourcePoint" />
            <mxPoint x="340.26" y="170" as="targetPoint" />
          </mxGeometry>
        </mxCell>
        <mxCell id="C01zyHq7IntDaLxIXgB6-12" value="id_archivo" style="rounded=1;whiteSpace=wrap;html=1;strokeColor=none;fillColor=none;" vertex="1" parent="1">
          <mxGeometry x="360" y="140" width="66" height="20" as="geometry" />
        </mxCell>
        <mxCell id="C01zyHq7IntDaLxIXgB6-13" value="" style="endArrow=oval;html=1;rounded=0;strokeWidth=1;startArrow=none;startFill=0;endFill=1;targetPerimeterSpacing=0;endSize=9;" edge="1" parent="1" source="C01zyHq7IntDaLxIXgB6-5" target="C01zyHq7IntDaLxIXgB6-12">
          <mxGeometry width="50" height="50" relative="1" as="geometry">
            <mxPoint x="413.53" y="290" as="sourcePoint" />
            <mxPoint x="346.53" y="220" as="targetPoint" />
          </mxGeometry>
        </mxCell>
        <mxCell id="C01zyHq7IntDaLxIXgB6-14" value="descripcion" style="rounded=1;whiteSpace=wrap;html=1;strokeColor=none;fillColor=none;" vertex="1" parent="1">
          <mxGeometry x="429.99999999999994" y="290" width="60" height="20" as="geometry" />
        </mxCell>
        <mxCell id="C01zyHq7IntDaLxIXgB6-15" value="" style="endArrow=oval;html=1;rounded=0;strokeWidth=1;startArrow=none;startFill=0;endFill=0;targetPerimeterSpacing=0;endSize=9;" edge="1" target="C01zyHq7IntDaLxIXgB6-14" parent="1" source="C01zyHq7IntDaLxIXgB6-5">
          <mxGeometry width="50" height="50" relative="1" as="geometry">
            <mxPoint x="459.9973684210527" y="210" as="sourcePoint" />
            <mxPoint x="525.31" y="190" as="targetPoint" />
          </mxGeometry>
        </mxCell>
        <mxCell id="C01zyHq7IntDaLxIXgB6-16" value="fecha_creacion" style="rounded=1;whiteSpace=wrap;html=1;strokeColor=none;fillColor=none;" vertex="1" parent="1">
          <mxGeometry x="504" y="150" width="100" height="20" as="geometry" />
        </mxCell>
        <mxCell id="C01zyHq7IntDaLxIXgB6-17" value="" style="endArrow=oval;html=1;rounded=0;strokeWidth=1;startArrow=none;startFill=0;endFill=0;targetPerimeterSpacing=0;endSize=9;" edge="1" target="C01zyHq7IntDaLxIXgB6-16" parent="1" source="C01zyHq7IntDaLxIXgB6-5">
          <mxGeometry width="50" height="50" relative="1" as="geometry">
            <mxPoint x="553" y="220" as="sourcePoint" />
            <mxPoint x="548.1176470588234" y="130" as="targetPoint" />
          </mxGeometry>
        </mxCell>
        <mxCell id="C01zyHq7IntDaLxIXgB6-18" value="tiene" style="rhombus;whiteSpace=wrap;html=1;" vertex="1" parent="1">
          <mxGeometry x="200" y="175" width="80" height="60" as="geometry" />
        </mxCell>
        <mxCell id="C01zyHq7IntDaLxIXgB6-19" value="" style="endArrow=none;html=1;rounded=0;entryX=0;entryY=0.5;entryDx=0;entryDy=0;" edge="1" parent="1" source="C01zyHq7IntDaLxIXgB6-2" target="C01zyHq7IntDaLxIXgB6-18">
          <mxGeometry relative="1" as="geometry">
            <mxPoint x="100" y="280" as="sourcePoint" />
            <mxPoint x="260" y="280" as="targetPoint" />
          </mxGeometry>
        </mxCell>
        <mxCell id="C01zyHq7IntDaLxIXgB6-20" value="" style="endArrow=none;html=1;rounded=0;exitX=1;exitY=0.5;exitDx=0;exitDy=0;" edge="1" parent="1" source="C01zyHq7IntDaLxIXgB6-18" target="C01zyHq7IntDaLxIXgB6-5">
          <mxGeometry relative="1" as="geometry">
            <mxPoint x="330" y="290" as="sourcePoint" />
            <mxPoint x="460" y="290" as="targetPoint" />
          </mxGeometry>
        </mxCell>
        <mxCell id="C01zyHq7IntDaLxIXgB6-21" value="1:N" style="text;html=1;align=center;verticalAlign=middle;resizable=0;points=[];autosize=1;strokeColor=none;fillColor=none;" vertex="1" parent="1">
          <mxGeometry x="220" y="150" width="40" height="30" as="geometry" />
        </mxCell>
        <mxCell id="C01zyHq7IntDaLxIXgB6-23" value="" style="endArrow=oval;html=1;rounded=0;strokeWidth=1;startArrow=none;startFill=0;endFill=0;targetPerimeterSpacing=0;endSize=9;" edge="1" target="C01zyHq7IntDaLxIXgB6-24" parent="1" source="C01zyHq7IntDaLxIXgB6-5">
          <mxGeometry width="50" height="50" relative="1" as="geometry">
            <mxPoint x="481" y="390" as="sourcePoint" />
            <mxPoint x="360.26" y="370" as="targetPoint" />
          </mxGeometry>
        </mxCell>
        <mxCell id="C01zyHq7IntDaLxIXgB6-24" value="tipo" style="rounded=1;whiteSpace=wrap;html=1;strokeColor=none;fillColor=none;" vertex="1" parent="1">
          <mxGeometry x="384" y="250" width="60" height="20" as="geometry" />
        </mxCell>
      </root>
    </mxGraphModel>
  </diagram>
</mxfile>
